<svg width="19" height="19" viewBox="0 0 19 19" fill="none" xmlns="http://www.w3.org/2000/svg">
<path d="M9.5 17.375C13.8492 17.375 17.375 13.8492 17.375 9.5C17.375 5.15076 13.8492 1.625 9.5 1.625C5.15076 1.625 1.625 5.15076 1.625 9.5C1.625 13.8492 5.15076 17.375 9.5 17.375Z" fill="#FFB300"/>
<path d="M9.5 15.6875C12.9173 15.6875 15.6875 12.9173 15.6875 9.5C15.6875 6.08274 12.9173 3.3125 9.5 3.3125C6.08274 3.3125 3.3125 6.08274 3.3125 9.5C3.3125 12.9173 6.08274 15.6875 9.5 15.6875Z" fill="#FF8F00"/>
<path d="M9.73667 5.93668L10.7234 7.93611L12.9299 8.25674C13.1464 8.28821 13.2329 8.55425 13.0762 8.70696L11.4796 10.2633L11.8565 12.4609C11.8935 12.6765 11.6671 12.8409 11.4735 12.7391L9.49995 11.7015L7.52639 12.7391C7.33275 12.8409 7.10642 12.6765 7.14341 12.4609L7.52031 10.2633L5.92368 8.70696C5.76703 8.55427 5.85348 8.28821 6.06996 8.25674L8.27645 7.93611L9.26322 5.93668C9.36002 5.74051 9.63987 5.74051 9.73667 5.93668Z" fill="#ECEFF1"/>
</svg>
