<svg width="14" height="16" viewBox="0 0 14 16" fill="none" xmlns="http://www.w3.org/2000/svg">
<g clip-path="url(#clip0_2162_2841)">
<path d="M8.09068 13.5211C7.8587 14.0389 7.70535 14.6008 7.64661 15.19L12.5558 14.1396C12.7878 13.6219 12.941 13.0599 12.9999 12.4707L8.09068 13.5211Z" fill="#1A8400"/>
<path d="M12.5556 10.993C12.7876 10.4753 12.9409 9.91333 12.9997 9.32409L9.17558 10.1428V8.56897L12.5555 7.84598C12.7875 7.32832 12.9408 6.76632 12.9996 6.17708L9.17546 6.99506V1.33522C8.5895 1.66639 8.0691 2.10721 7.64607 2.62719V7.32239L6.11668 7.6496V0.56543C5.53071 0.896485 5.01032 1.33743 4.58729 1.85741V7.9767L1.16527 8.70865C0.933288 9.22631 0.779829 9.78831 0.720966 10.3776L4.58729 9.55049V11.5324L0.443768 12.4187C0.211786 12.9364 0.058442 13.4984 -0.000305176 14.0876L4.33681 13.1599C4.68987 13.0859 4.99332 12.8758 5.19061 12.5867L5.986 11.3997V11.3995C6.06857 11.2767 6.11668 11.1286 6.11668 10.9691V9.22328L7.64607 8.89606V12.0437L12.5555 10.9928L12.5556 10.993Z" fill="#1A8400"/>
</g>
<defs>
<clipPath id="clip0_2162_2841">
<rect width="13.0855" height="14.625" fill="white" transform="translate(0 0.56543)"/>
</clipPath>
</defs>
</svg>
