<svg width="36" height="34" viewBox="0 0 36 34" fill="none" xmlns="http://www.w3.org/2000/svg">
<path d="M21.374 2.78392L24.1836 8.1702C24.61 8.97003 25.3877 9.53238 26.2907 9.65738L32.2235 10.4698C35.3969 10.9071 36.626 14.8188 34.2805 16.9933L30.2166 20.7424C29.5142 21.3923 29.1881 22.3545 29.3637 23.2918L30.3546 28.7905C30.9065 31.8524 27.7206 34.2394 24.9236 32.8396L19.2542 30.0278C18.4641 29.6404 17.5359 29.6404 16.7457 30.0278L11.0764 32.8396C8.27934 34.2269 5.09346 31.8524 5.64535 28.7905L6.63622 23.2918C6.81182 22.3545 6.48571 21.3923 5.78331 20.7424L1.71945 16.9933C-0.626052 14.8313 0.603135 10.9071 3.77647 10.4698L9.70921 9.65738C10.6122 9.53238 11.4025 8.98252 11.8164 8.1702L14.626 2.78392C16.0559 0.0720282 19.9566 0.0720282 21.374 2.78392Z" fill="#FCD53F"/>
</svg>
